<svg id="visual" viewBox="0 0 960 540" width="960" height="540" xmlns="http://www.w3.org/2000/svg" xmlns:xlink="http://www.w3.org/1999/xlink" version="1.1"><path d="M0 212L137 212L137 50L274 50L274 136L411 136L411 147L549 147L549 120L686 120L686 179L823 179L823 152L960 152L960 125L960 0L960 0L823 0L823 0L686 0L686 0L549 0L549 0L411 0L411 0L274 0L274 0L137 0L137 0L0 0Z" fill="#414141"></path><path d="M0 260L137 260L137 125L274 125L274 239L411 239L411 190L549 190L549 195L686 195L686 249L823 249L823 185L960 185L960 185L960 123L960 150L823 150L823 177L686 177L686 118L549 118L549 145L411 145L411 134L274 134L274 48L137 48L137 210L0 210Z" fill="#4c5448"></path><path d="M0 347L137 347L137 255L274 255L274 298L411 298L411 293L549 293L549 341L686 341L686 341L823 341L823 260L960 260L960 325L960 183L960 183L823 183L823 247L686 247L686 193L549 193L549 188L411 188L411 237L274 237L274 123L137 123L137 258L0 258Z" fill="#57684e"></path><path d="M0 368L137 368L137 309L274 309L274 325L411 325L411 314L549 314L549 379L686 379L686 363L823 363L823 314L960 314L960 379L960 323L960 258L823 258L823 339L686 339L686 339L549 339L549 291L411 291L411 296L274 296L274 253L137 253L137 345L0 345Z" fill="#627d54"></path><path d="M0 395L137 395L137 384L274 384L274 390L411 390L411 401L549 401L549 417L686 417L686 401L823 401L823 379L960 379L960 411L960 377L960 312L823 312L823 361L686 361L686 377L549 377L549 312L411 312L411 323L274 323L274 307L137 307L137 366L0 366Z" fill="#6c925a"></path><path d="M0 417L137 417L137 438L274 438L274 428L411 428L411 455L549 455L549 444L686 444L686 438L823 438L823 411L960 411L960 449L960 409L960 377L823 377L823 399L686 399L686 415L549 415L549 399L411 399L411 388L274 388L274 382L137 382L137 393L0 393Z" fill="#76a860"></path><path d="M0 444L137 444L137 465L274 465L274 476L411 476L411 471L549 471L549 487L686 487L686 482L823 482L823 444L960 444L960 471L960 447L960 409L823 409L823 436L686 436L686 442L549 442L549 453L411 453L411 426L274 426L274 436L137 436L137 415L0 415Z" fill="#80be66"></path><path d="M0 487L137 487L137 498L274 498L274 509L411 509L411 509L549 509L549 514L686 514L686 519L823 519L823 487L960 487L960 492L960 469L960 442L823 442L823 480L686 480L686 485L549 485L549 469L411 469L411 474L274 474L274 463L137 463L137 442L0 442Z" fill="#8ad46b"></path><path d="M0 541L137 541L137 541L274 541L274 541L411 541L411 541L549 541L549 541L686 541L686 541L823 541L823 541L960 541L960 541L960 490L960 485L823 485L823 517L686 517L686 512L549 512L549 507L411 507L411 507L274 507L274 496L137 496L137 485L0 485Z" fill="#94eb71"></path></svg>