<svg id="visual" viewBox="0 0 900 600" width="900" height="600" xmlns="http://www.w3.org/2000/svg" xmlns:xlink="http://www.w3.org/1999/xlink" version="1.1"><rect x="0" y="0" width="900" height="600" fill="#2f2f2f"></rect><g fill="none" stroke="#4dc562" stroke-width="2"><circle r="44" cx="477" cy="497"></circle><circle r="1" cx="754" cy="394"></circle><circle r="16" cx="142" cy="411"></circle><circle r="15" cx="894" cy="224"></circle><circle r="10" cx="279" cy="65"></circle><circle r="42" cx="331" cy="399"></circle><circle r="10" cx="612" cy="427"></circle><circle r="11" cx="661" cy="236"></circle><circle r="4" cx="306" cy="541"></circle><circle r="25" cx="75" cy="592"></circle><circle r="5" cx="529" cy="72"></circle><circle r="41" cx="748" cy="295"></circle><circle r="0" cx="146" cy="282"></circle><circle r="20" cx="376" cy="69"></circle><circle r="30" cx="17" cy="318"></circle><circle r="23" cx="46" cy="198"></circle><circle r="16" cx="6" cy="514"></circle><circle r="7" cx="465" cy="329"></circle><circle r="9" cx="548" cy="212"></circle><circle r="40" cx="766" cy="537"></circle><circle r="30" cx="268" cy="212"></circle><circle r="19" cx="896" cy="522"></circle><circle r="10" cx="261" cy="308"></circle><circle r="33" cx="780" cy="90"></circle><circle r="14" cx="17" cy="105"></circle><circle r="12" cx="584" cy="325"></circle><circle r="38" cx="359" cy="189"></circle><circle r="9" cx="601" cy="137"></circle><circle r="28" cx="651" cy="561"></circle><circle r="19" cx="141" cy="12"></circle><circle r="17" cx="458" cy="135"></circle><circle r="37" cx="418" cy="578"></circle><circle r="39" cx="177" cy="514"></circle><circle r="14" cx="802" cy="210"></circle><circle r="2" cx="556" cy="577"></circle><circle r="6" cx="861" cy="6"></circle><circle r="37" cx="239" cy="405"></circle><circle r="4" cx="704" cy="29"></circle><circle r="33" cx="875" cy="344"></circle><circle r="27" cx="181" cy="128"></circle><circle r="28" cx="897" cy="127"></circle><circle r="30" cx="382" cy="486"></circle><circle r="23" cx="353" cy="297"></circle><circle r="30" cx="47" cy="419"></circle><circle r="6" cx="24" cy="11"></circle><circle r="40" cx="453" cy="8"></circle><circle r="18" cx="231" cy="598"></circle><circle r="39" cx="601" cy="5"></circle><circle r="10" cx="515" cy="409"></circle><circle r="38" cx="452" cy="234"></circle><circle r="20" cx="852" cy="438"></circle><circle r="34" cx="694" cy="125"></circle><circle r="7" cx="695" cy="469"></circle></g></svg>